<?xml version="1.0" encoding="utf-8" standalone="no"?>
<!DOCTYPE svg PUBLIC "-//W3C//DTD SVG 1.1//EN"
  "http://www.w3.org/Graphics/SVG/1.1/DTD/svg11.dtd">
<svg xmlns:xlink="http://www.w3.org/1999/xlink" width="504pt" height="360pt" viewBox="0 0 504 360" xmlns="http://www.w3.org/2000/svg" version="1.1">
 <metadata>
  <rdf:RDF xmlns:dc="http://purl.org/dc/elements/1.1/" xmlns:cc="http://creativecommons.org/ns#" xmlns:rdf="http://www.w3.org/1999/02/22-rdf-syntax-ns#">
   <cc:Work>
    <dc:type rdf:resource="http://purl.org/dc/dcmitype/StillImage"/>
    <dc:date>2023-07-11T09:19:55.495541</dc:date>
    <dc:format>image/svg+xml</dc:format>
    <dc:creator>
     <cc:Agent>
      <dc:title>Matplotlib v3.7.1, https://matplotlib.org/</dc:title>
     </cc:Agent>
    </dc:creator>
   </cc:Work>
  </rdf:RDF>
 </metadata>
 <defs>
  <style type="text/css">*{stroke-linejoin: round; stroke-linecap: butt}</style>
 </defs>
 <g id="figure_1">
  <g id="patch_1">
   <path d="M 0 360 
L 504 360 
L 504 0 
L 0 0 
z
" style="fill: #ffffff"/>
  </g>
  <g id="axes_1">
   <g id="patch_2">
    <path d="M 63 320.4 
L 453.6 320.4 
L 453.6 43.2 
L 63 43.2 
z
" style="fill: #ffffff"/>
   </g>
   <g id="matplotlib.axis_1">
    <g id="xtick_1">
     <g id="line2d_1">
      <defs>
       <path id="m892c7ce65a" d="M 0 0 
L 0 3.5 
" style="stroke: #000000; stroke-width: 0.8"/>
      </defs>
      <g>
       <use xlink:href="#m892c7ce65a" x="80.754545" y="320.4" style="stroke: #000000; stroke-width: 0.8"/>
      </g>
     </g>
     <g id="text_1">
      <!-- 0 -->
      <g transform="translate(77.573295 334.998438) scale(0.1 -0.1)">
       <defs>
        <path id="DejaVuSans-30" d="M 2034 4250 
Q 1547 4250 1301 3770 
Q 1056 3291 1056 2328 
Q 1056 1369 1301 889 
Q 1547 409 2034 409 
Q 2525 409 2770 889 
Q 3016 1369 3016 2328 
Q 3016 3291 2770 3770 
Q 2525 4250 2034 4250 
z
M 2034 4750 
Q 2819 4750 3233 4129 
Q 3647 3509 3647 2328 
Q 3647 1150 3233 529 
Q 2819 -91 2034 -91 
Q 1250 -91 836 529 
Q 422 1150 422 2328 
Q 422 3509 836 4129 
Q 1250 4750 2034 4750 
z
" transform="scale(0.015625)"/>
       </defs>
       <use xlink:href="#DejaVuSans-30"/>
      </g>
     </g>
    </g>
    <g id="xtick_2">
     <g id="line2d_2">
      <g>
       <use xlink:href="#m892c7ce65a" x="140.134296" y="320.4" style="stroke: #000000; stroke-width: 0.8"/>
      </g>
     </g>
     <g id="text_2">
      <!-- 50 -->
      <g transform="translate(133.771796 334.998438) scale(0.1 -0.1)">
       <defs>
        <path id="DejaVuSans-35" d="M 691 4666 
L 3169 4666 
L 3169 4134 
L 1269 4134 
L 1269 2991 
Q 1406 3038 1543 3061 
Q 1681 3084 1819 3084 
Q 2600 3084 3056 2656 
Q 3513 2228 3513 1497 
Q 3513 744 3044 326 
Q 2575 -91 1722 -91 
Q 1428 -91 1123 -41 
Q 819 9 494 109 
L 494 744 
Q 775 591 1075 516 
Q 1375 441 1709 441 
Q 2250 441 2565 725 
Q 2881 1009 2881 1497 
Q 2881 1984 2565 2268 
Q 2250 2553 1709 2553 
Q 1456 2553 1204 2497 
Q 953 2441 691 2322 
L 691 4666 
z
" transform="scale(0.015625)"/>
       </defs>
       <use xlink:href="#DejaVuSans-35"/>
       <use xlink:href="#DejaVuSans-30" x="63.623047"/>
      </g>
     </g>
    </g>
    <g id="xtick_3">
     <g id="line2d_3">
      <g>
       <use xlink:href="#m892c7ce65a" x="199.514047" y="320.4" style="stroke: #000000; stroke-width: 0.8"/>
      </g>
     </g>
     <g id="text_3">
      <!-- 100 -->
      <g transform="translate(189.970297 334.998438) scale(0.1 -0.1)">
       <defs>
        <path id="DejaVuSans-31" d="M 794 531 
L 1825 531 
L 1825 4091 
L 703 3866 
L 703 4441 
L 1819 4666 
L 2450 4666 
L 2450 531 
L 3481 531 
L 3481 0 
L 794 0 
L 794 531 
z
" transform="scale(0.015625)"/>
       </defs>
       <use xlink:href="#DejaVuSans-31"/>
       <use xlink:href="#DejaVuSans-30" x="63.623047"/>
       <use xlink:href="#DejaVuSans-30" x="127.246094"/>
      </g>
     </g>
    </g>
    <g id="xtick_4">
     <g id="line2d_4">
      <g>
       <use xlink:href="#m892c7ce65a" x="258.893798" y="320.4" style="stroke: #000000; stroke-width: 0.8"/>
      </g>
     </g>
     <g id="text_4">
      <!-- 150 -->
      <g transform="translate(249.350048 334.998438) scale(0.1 -0.1)">
       <use xlink:href="#DejaVuSans-31"/>
       <use xlink:href="#DejaVuSans-35" x="63.623047"/>
       <use xlink:href="#DejaVuSans-30" x="127.246094"/>
      </g>
     </g>
    </g>
    <g id="xtick_5">
     <g id="line2d_5">
      <g>
       <use xlink:href="#m892c7ce65a" x="318.273548" y="320.4" style="stroke: #000000; stroke-width: 0.8"/>
      </g>
     </g>
     <g id="text_5">
      <!-- 200 -->
      <g transform="translate(308.729798 334.998438) scale(0.1 -0.1)">
       <defs>
        <path id="DejaVuSans-32" d="M 1228 531 
L 3431 531 
L 3431 0 
L 469 0 
L 469 531 
Q 828 903 1448 1529 
Q 2069 2156 2228 2338 
Q 2531 2678 2651 2914 
Q 2772 3150 2772 3378 
Q 2772 3750 2511 3984 
Q 2250 4219 1831 4219 
Q 1534 4219 1204 4116 
Q 875 4013 500 3803 
L 500 4441 
Q 881 4594 1212 4672 
Q 1544 4750 1819 4750 
Q 2544 4750 2975 4387 
Q 3406 4025 3406 3419 
Q 3406 3131 3298 2873 
Q 3191 2616 2906 2266 
Q 2828 2175 2409 1742 
Q 1991 1309 1228 531 
z
" transform="scale(0.015625)"/>
       </defs>
       <use xlink:href="#DejaVuSans-32"/>
       <use xlink:href="#DejaVuSans-30" x="63.623047"/>
       <use xlink:href="#DejaVuSans-30" x="127.246094"/>
      </g>
     </g>
    </g>
    <g id="xtick_6">
     <g id="line2d_6">
      <g>
       <use xlink:href="#m892c7ce65a" x="377.653299" y="320.4" style="stroke: #000000; stroke-width: 0.8"/>
      </g>
     </g>
     <g id="text_6">
      <!-- 250 -->
      <g transform="translate(368.109549 334.998438) scale(0.1 -0.1)">
       <use xlink:href="#DejaVuSans-32"/>
       <use xlink:href="#DejaVuSans-35" x="63.623047"/>
       <use xlink:href="#DejaVuSans-30" x="127.246094"/>
      </g>
     </g>
    </g>
    <g id="xtick_7">
     <g id="line2d_7">
      <g>
       <use xlink:href="#m892c7ce65a" x="437.03305" y="320.4" style="stroke: #000000; stroke-width: 0.8"/>
      </g>
     </g>
     <g id="text_7">
      <!-- 300 -->
      <g transform="translate(427.4893 334.998438) scale(0.1 -0.1)">
       <defs>
        <path id="DejaVuSans-33" d="M 2597 2516 
Q 3050 2419 3304 2112 
Q 3559 1806 3559 1356 
Q 3559 666 3084 287 
Q 2609 -91 1734 -91 
Q 1441 -91 1130 -33 
Q 819 25 488 141 
L 488 750 
Q 750 597 1062 519 
Q 1375 441 1716 441 
Q 2309 441 2620 675 
Q 2931 909 2931 1356 
Q 2931 1769 2642 2001 
Q 2353 2234 1838 2234 
L 1294 2234 
L 1294 2753 
L 1863 2753 
Q 2328 2753 2575 2939 
Q 2822 3125 2822 3475 
Q 2822 3834 2567 4026 
Q 2313 4219 1838 4219 
Q 1578 4219 1281 4162 
Q 984 4106 628 3988 
L 628 4550 
Q 988 4650 1302 4700 
Q 1616 4750 1894 4750 
Q 2613 4750 3031 4423 
Q 3450 4097 3450 3541 
Q 3450 3153 3228 2886 
Q 3006 2619 2597 2516 
z
" transform="scale(0.015625)"/>
       </defs>
       <use xlink:href="#DejaVuSans-33"/>
       <use xlink:href="#DejaVuSans-30" x="63.623047"/>
       <use xlink:href="#DejaVuSans-30" x="127.246094"/>
      </g>
     </g>
    </g>
   </g>
   <g id="matplotlib.axis_2">
    <g id="ytick_1">
     <g id="line2d_8">
      <defs>
       <path id="mdb36da4165" d="M 0 0 
L -3.5 0 
" style="stroke: #000000; stroke-width: 0.8"/>
      </defs>
      <g>
       <use xlink:href="#mdb36da4165" x="63" y="292.061375" style="stroke: #000000; stroke-width: 0.8"/>
      </g>
     </g>
     <g id="text_8">
      <!-- −1.2 -->
      <g transform="translate(31.717187 295.860593) scale(0.1 -0.1)">
       <defs>
        <path id="DejaVuSans-2212" d="M 678 2272 
L 4684 2272 
L 4684 1741 
L 678 1741 
L 678 2272 
z
" transform="scale(0.015625)"/>
        <path id="DejaVuSans-2e" d="M 684 794 
L 1344 794 
L 1344 0 
L 684 0 
L 684 794 
z
" transform="scale(0.015625)"/>
       </defs>
       <use xlink:href="#DejaVuSans-2212"/>
       <use xlink:href="#DejaVuSans-31" x="83.789062"/>
       <use xlink:href="#DejaVuSans-2e" x="147.412109"/>
       <use xlink:href="#DejaVuSans-32" x="179.199219"/>
      </g>
     </g>
    </g>
    <g id="ytick_2">
     <g id="line2d_9">
      <g>
       <use xlink:href="#mdb36da4165" x="63" y="240.195977" style="stroke: #000000; stroke-width: 0.8"/>
      </g>
     </g>
     <g id="text_9">
      <!-- −1.0 -->
      <g transform="translate(31.717187 243.995196) scale(0.1 -0.1)">
       <use xlink:href="#DejaVuSans-2212"/>
       <use xlink:href="#DejaVuSans-31" x="83.789062"/>
       <use xlink:href="#DejaVuSans-2e" x="147.412109"/>
       <use xlink:href="#DejaVuSans-30" x="179.199219"/>
      </g>
     </g>
    </g>
    <g id="ytick_3">
     <g id="line2d_10">
      <g>
       <use xlink:href="#mdb36da4165" x="63" y="188.33058" style="stroke: #000000; stroke-width: 0.8"/>
      </g>
     </g>
     <g id="text_10">
      <!-- −0.8 -->
      <g transform="translate(31.717187 192.129799) scale(0.1 -0.1)">
       <defs>
        <path id="DejaVuSans-38" d="M 2034 2216 
Q 1584 2216 1326 1975 
Q 1069 1734 1069 1313 
Q 1069 891 1326 650 
Q 1584 409 2034 409 
Q 2484 409 2743 651 
Q 3003 894 3003 1313 
Q 3003 1734 2745 1975 
Q 2488 2216 2034 2216 
z
M 1403 2484 
Q 997 2584 770 2862 
Q 544 3141 544 3541 
Q 544 4100 942 4425 
Q 1341 4750 2034 4750 
Q 2731 4750 3128 4425 
Q 3525 4100 3525 3541 
Q 3525 3141 3298 2862 
Q 3072 2584 2669 2484 
Q 3125 2378 3379 2068 
Q 3634 1759 3634 1313 
Q 3634 634 3220 271 
Q 2806 -91 2034 -91 
Q 1263 -91 848 271 
Q 434 634 434 1313 
Q 434 1759 690 2068 
Q 947 2378 1403 2484 
z
M 1172 3481 
Q 1172 3119 1398 2916 
Q 1625 2713 2034 2713 
Q 2441 2713 2670 2916 
Q 2900 3119 2900 3481 
Q 2900 3844 2670 4047 
Q 2441 4250 2034 4250 
Q 1625 4250 1398 4047 
Q 1172 3844 1172 3481 
z
" transform="scale(0.015625)"/>
       </defs>
       <use xlink:href="#DejaVuSans-2212"/>
       <use xlink:href="#DejaVuSans-30" x="83.789062"/>
       <use xlink:href="#DejaVuSans-2e" x="147.412109"/>
       <use xlink:href="#DejaVuSans-38" x="179.199219"/>
      </g>
     </g>
    </g>
    <g id="ytick_4">
     <g id="line2d_11">
      <g>
       <use xlink:href="#mdb36da4165" x="63" y="136.465183" style="stroke: #000000; stroke-width: 0.8"/>
      </g>
     </g>
     <g id="text_11">
      <!-- −0.6 -->
      <g transform="translate(31.717187 140.264401) scale(0.1 -0.1)">
       <defs>
        <path id="DejaVuSans-36" d="M 2113 2584 
Q 1688 2584 1439 2293 
Q 1191 2003 1191 1497 
Q 1191 994 1439 701 
Q 1688 409 2113 409 
Q 2538 409 2786 701 
Q 3034 994 3034 1497 
Q 3034 2003 2786 2293 
Q 2538 2584 2113 2584 
z
M 3366 4563 
L 3366 3988 
Q 3128 4100 2886 4159 
Q 2644 4219 2406 4219 
Q 1781 4219 1451 3797 
Q 1122 3375 1075 2522 
Q 1259 2794 1537 2939 
Q 1816 3084 2150 3084 
Q 2853 3084 3261 2657 
Q 3669 2231 3669 1497 
Q 3669 778 3244 343 
Q 2819 -91 2113 -91 
Q 1303 -91 875 529 
Q 447 1150 447 2328 
Q 447 3434 972 4092 
Q 1497 4750 2381 4750 
Q 2619 4750 2861 4703 
Q 3103 4656 3366 4563 
z
" transform="scale(0.015625)"/>
       </defs>
       <use xlink:href="#DejaVuSans-2212"/>
       <use xlink:href="#DejaVuSans-30" x="83.789062"/>
       <use xlink:href="#DejaVuSans-2e" x="147.412109"/>
       <use xlink:href="#DejaVuSans-36" x="179.199219"/>
      </g>
     </g>
    </g>
    <g id="ytick_5">
     <g id="line2d_12">
      <g>
       <use xlink:href="#mdb36da4165" x="63" y="84.599785" style="stroke: #000000; stroke-width: 0.8"/>
      </g>
     </g>
     <g id="text_12">
      <!-- −0.4 -->
      <g transform="translate(31.717187 88.399004) scale(0.1 -0.1)">
       <defs>
        <path id="DejaVuSans-34" d="M 2419 4116 
L 825 1625 
L 2419 1625 
L 2419 4116 
z
M 2253 4666 
L 3047 4666 
L 3047 1625 
L 3713 1625 
L 3713 1100 
L 3047 1100 
L 3047 0 
L 2419 0 
L 2419 1100 
L 313 1100 
L 313 1709 
L 2253 4666 
z
" transform="scale(0.015625)"/>
       </defs>
       <use xlink:href="#DejaVuSans-2212"/>
       <use xlink:href="#DejaVuSans-30" x="83.789062"/>
       <use xlink:href="#DejaVuSans-2e" x="147.412109"/>
       <use xlink:href="#DejaVuSans-34" x="179.199219"/>
      </g>
     </g>
    </g>
   </g>
   <g id="line2d_13">
    <path d="M 80.754545 68.177829 
L 81.94214 64.704932 
L 83.129735 67.944221 
L 84.31733 64.837455 
L 85.504926 68.165091 
L 86.692521 74.410355 
L 87.880116 85.005124 
L 89.067711 85.733578 
L 90.255306 98.226575 
L 91.442901 106.588213 
L 92.630496 93.905757 
L 93.818091 119.783805 
L 95.005686 131.779584 
L 96.193281 138.752939 
L 97.380876 118.337334 
L 98.568471 132.180224 
L 99.756066 175.539599 
L 102.131256 134.98722 
L 103.318851 180.071078 
L 104.506446 142.698466 
L 105.694041 172.188362 
L 106.881636 180.514665 
L 108.069231 157.453711 
L 109.256826 175.77083 
L 110.444421 190.877216 
L 111.632016 194.233183 
L 112.819611 198.679895 
L 114.007206 187.450267 
L 115.194801 213.838836 
L 116.382396 199.65972 
L 117.569991 191.089419 
L 118.757586 230.622356 
L 119.945181 215.206155 
L 121.132776 214.965148 
L 122.320371 222.066276 
L 123.507966 215.175086 
L 124.695561 223.648263 
L 125.883156 233.969922 
L 127.070751 182.085732 
L 128.258346 220.62331 
L 129.445941 245.350902 
L 130.633536 156.074745 
L 131.821131 253.503638 
L 133.008726 232.227846 
L 134.196321 252.637716 
L 135.383916 215.752355 
L 136.571511 236.035144 
L 137.759106 197.358236 
L 138.946701 232.935549 
L 140.134296 253.84677 
L 141.321891 225.778884 
L 142.509486 227.317931 
L 143.697081 208.295536 
L 144.884676 165.919012 
L 146.072271 193.085664 
L 147.259866 250.327159 
L 148.447461 219.859652 
L 149.635056 217.261493 
L 150.822651 224.750941 
L 152.010246 261.973584 
L 153.197841 240.48494 
L 154.385436 223.808027 
L 155.573031 261.748938 
L 156.760626 227.945327 
L 157.948221 217.269291 
L 159.135816 242.019203 
L 160.323411 217.626295 
L 161.511006 190.052179 
L 162.698601 193.007142 
L 163.886196 235.975712 
L 165.073791 221.778272 
L 166.261386 239.820957 
L 167.448981 214.229128 
L 168.636576 249.740207 
L 169.824171 264.021989 
L 171.011766 245.848018 
L 172.199362 253.169425 
L 173.386957 229.344944 
L 174.574552 202.140174 
L 175.762147 220.761751 
L 176.949742 235.480868 
L 178.137337 210.944588 
L 179.324932 242.783541 
L 180.512527 217.280883 
L 181.700122 240.440617 
L 182.887717 231.253477 
L 184.075312 284.497984 
L 185.262907 223.01395 
L 186.450502 280.226138 
L 187.638097 243.762021 
L 188.825692 219.017117 
L 190.013287 223.377316 
L 191.200882 232.759748 
L 192.388477 246.879168 
L 193.576072 257.331912 
L 194.763667 211.693562 
L 195.951262 235.944813 
L 197.138857 232.910563 
L 198.326452 267.590684 
L 199.514047 189.39502 
L 200.701642 202.468243 
L 203.076832 243.354487 
L 204.264427 257.27438 
L 205.452022 214.115874 
L 206.639617 228.543694 
L 207.827212 235.614897 
L 209.014807 245.409315 
L 210.202402 220.874967 
L 211.389997 256.660046 
L 212.577592 215.812027 
L 213.765187 219.483581 
L 214.952782 258.307957 
L 216.140377 276.230263 
L 217.327972 270.637431 
L 218.515567 244.118323 
L 219.703162 262.082 
L 220.890757 228.253356 
L 222.078352 229.665709 
L 223.265947 269.511173 
L 224.453542 283.750479 
L 225.641137 258.216969 
L 226.828732 198.358001 
L 228.016327 232.925224 
L 229.203922 232.223935 
L 230.391517 276.159145 
L 231.579112 261.174035 
L 232.766707 263.585612 
L 233.954302 260.707872 
L 235.141897 258.855594 
L 236.329492 208.090235 
L 237.517087 256.020802 
L 238.704682 202.631238 
L 239.892277 206.373725 
L 241.079872 300.126844 
L 242.267467 202.691243 
L 243.455062 239.062988 
L 244.642657 223.451417 
L 245.830252 245.554936 
L 247.017847 192.596857 
L 248.205442 215.862811 
L 249.393037 225.458296 
L 250.580632 278.221863 
L 251.768227 247.724555 
L 252.955822 268.376136 
L 254.143417 229.7393 
L 255.331012 247.599353 
L 256.518607 259.01566 
L 257.706202 196.103391 
L 258.893798 211.58268 
L 260.081393 245.113474 
L 261.268988 223.137159 
L 262.456583 207.392255 
L 263.644178 207.646269 
L 264.831773 187.603234 
L 266.019368 217.55636 
L 267.206963 216.4593 
L 268.394558 245.335832 
L 269.582153 292.579594 
L 270.769748 238.868677 
L 271.957343 246.007326 
L 273.144938 236.134966 
L 274.332533 240.840631 
L 275.520128 223.181474 
L 276.707723 221.458016 
L 277.895318 237.462483 
L 279.082913 211.63719 
L 280.270508 267.341129 
L 281.458103 229.067025 
L 282.645698 264.947343 
L 283.833293 223.069511 
L 285.020888 252.862555 
L 286.208483 251.920043 
L 287.396078 269.242622 
L 288.583673 229.013211 
L 289.771268 220.582549 
L 290.958863 247.532547 
L 292.146458 257.787757 
L 293.334053 225.945465 
L 294.521648 249.852317 
L 295.709243 237.508499 
L 296.896838 241.785384 
L 298.084433 198.079001 
L 299.272028 222.826517 
L 300.459623 291.08667 
L 301.647218 238.37051 
L 302.834813 256.209727 
L 304.022408 206.004401 
L 305.210003 225.55032 
L 306.397598 187.756893 
L 307.585193 226.826597 
L 308.772788 208.527346 
L 309.960383 225.356983 
L 311.147978 195.484358 
L 312.335573 233.472575 
L 313.523168 224.392244 
L 314.710763 282.870831 
L 315.898358 235.060977 
L 317.085953 207.174596 
L 319.461143 262.32133 
L 320.648738 216.660358 
L 321.836333 278.726653 
L 323.023928 247.56629 
L 324.211523 207.071632 
L 325.399118 207.86331 
L 326.586713 215.19093 
L 327.774308 199.239867 
L 328.961903 216.174944 
L 330.149498 222.347471 
L 331.337093 219.961329 
L 332.524688 251.523739 
L 333.712283 240.865571 
L 334.899878 213.290573 
L 336.087473 243.911522 
L 337.275068 191.560861 
L 338.462663 237.491604 
L 339.650258 238.96179 
L 340.837853 218.419422 
L 342.025448 230.129484 
L 343.213043 252.110475 
L 344.400638 224.094973 
L 345.588234 235.657443 
L 346.775829 203.815136 
L 347.963424 267.399224 
L 349.151019 257.941168 
L 350.338614 304.963345 
L 351.526209 227.039565 
L 352.713804 222.578926 
L 353.901399 198.998342 
L 355.088994 194.453578 
L 357.464184 251.256748 
L 358.651779 237.658441 
L 359.839374 233.930252 
L 361.026969 211.846757 
L 362.214564 250.068454 
L 363.402159 218.953863 
L 364.589754 200.87964 
L 365.777349 208.053532 
L 366.964944 219.861453 
L 368.152539 266.540676 
L 369.340134 231.257875 
L 370.527729 191.976911 
L 371.715324 222.825219 
L 372.902919 165.431217 
L 374.090514 264.186823 
L 375.278109 248.900593 
L 376.465704 209.046303 
L 377.653299 219.986675 
L 378.840894 306.414782 
L 380.028489 211.339579 
L 381.216084 224.572705 
L 382.403679 284.523952 
L 383.591274 219.154098 
L 384.778869 253.082695 
L 385.966464 248.846478 
L 387.154059 271.624915 
L 388.341654 217.613999 
L 389.529249 269.483953 
L 390.716844 206.906755 
L 391.904439 204.441078 
L 393.092034 307.8 
L 394.279629 249.414062 
L 395.467224 215.234194 
L 396.654819 184.915671 
L 397.842414 232.359834 
L 399.030009 255.916003 
L 400.217604 206.841704 
L 401.405199 258.932749 
L 402.592794 220.706129 
L 403.780389 237.576286 
L 404.967984 241.948085 
L 406.155579 268.056097 
L 407.343174 221.191451 
L 408.530769 214.160027 
L 409.718364 252.032192 
L 410.905959 198.418485 
L 412.093554 260.668866 
L 413.281149 231.94747 
L 414.468744 207.953958 
L 415.656339 268.417739 
L 416.843934 234.938634 
L 418.031529 255.779733 
L 419.219124 231.320847 
L 420.406719 238.331682 
L 421.594314 249.403227 
L 422.781909 254.191463 
L 423.969504 212.854057 
L 425.157099 225.944275 
L 426.344694 218.248884 
L 428.719884 251.636266 
L 429.907479 222.266167 
L 431.095074 251.222588 
L 432.28267 245.103944 
L 433.470265 231.193906 
L 434.65786 225.154958 
L 435.845455 224.877913 
L 435.845455 224.877913 
" clip-path="url(#pf6720d013f)" style="fill: none; stroke: #1f77b4; stroke-width: 1.5; stroke-linecap: square"/>
   </g>
   <g id="line2d_14">
    <path d="M 80.754545 90.506138 
L 81.94214 85.429251 
L 83.129735 70.812445 
L 84.31733 65.50957 
L 85.504926 63.086768 
L 86.692521 55.8 
L 87.880116 57.292953 
L 89.067711 57.546895 
L 90.255306 70.026436 
L 91.442901 72.409067 
L 93.818091 90.893817 
L 95.005686 97.582421 
L 96.193281 101.85222 
L 97.380876 103.95176 
L 98.568471 108.834756 
L 99.756066 124.869052 
L 100.943661 119.030601 
L 102.131256 118.432322 
L 103.318851 126.679055 
L 104.506446 125.490539 
L 105.694041 139.849175 
L 106.881636 145.756912 
L 108.069231 138.601479 
L 109.256826 154.404037 
L 110.444421 156.633684 
L 111.632016 154.236333 
L 112.819611 160.386669 
L 114.007206 161.902284 
L 115.194801 155.366139 
L 116.382396 161.195134 
L 117.569991 170.841951 
L 119.945181 166.011686 
L 121.132776 177.195692 
L 122.320371 181.346534 
L 123.507966 175.949511 
L 124.695561 173.629319 
L 125.883156 187.123381 
L 127.070751 183.699385 
L 128.258346 177.98441 
L 129.445941 182.790837 
L 130.633536 178.244455 
L 131.821131 179.086345 
L 133.008726 178.81684 
L 134.196321 183.752628 
L 135.383916 179.791226 
L 136.571511 179.910604 
L 137.759106 186.586695 
L 138.946701 187.27241 
L 140.134296 194.911379 
L 141.321891 185.983067 
L 142.509486 188.750897 
L 143.697081 183.772137 
L 147.259866 191.647249 
L 148.447461 188.45587 
L 149.635056 187.15866 
L 150.822651 192.447164 
L 152.010246 178.786847 
L 153.197841 193.009995 
L 154.385436 191.029667 
L 155.573031 191.617266 
L 156.760626 188.716352 
L 157.948221 198.94076 
L 159.135816 193.180448 
L 160.323411 198.749259 
L 161.511006 199.151864 
L 162.698601 193.382851 
L 163.886196 190.343224 
L 165.073791 198.452138 
L 166.261386 189.411414 
L 167.448981 193.653607 
L 168.636576 186.972718 
L 169.824171 192.565973 
L 171.011766 196.157016 
L 172.199362 198.295777 
L 173.386957 186.226217 
L 174.574552 205.838352 
L 175.762147 195.761376 
L 176.949742 186.653872 
L 178.137337 189.706283 
L 179.324932 188.879725 
L 180.512527 194.083145 
L 181.700122 190.545904 
L 182.887717 194.333213 
L 184.075312 191.582456 
L 185.262907 191.835214 
L 186.450502 200.426835 
L 187.638097 197.488214 
L 188.825692 200.884465 
L 190.013287 193.401809 
L 191.200882 199.075451 
L 192.388477 198.056726 
L 193.576072 193.825565 
L 194.763667 193.941573 
L 195.951262 190.495383 
L 197.138857 199.452066 
L 198.326452 194.834766 
L 199.514047 188.597574 
L 200.701642 194.346875 
L 201.889237 191.395587 
L 203.076832 198.197036 
L 204.264427 193.489593 
L 205.452022 190.088647 
L 206.639617 198.780054 
L 207.827212 191.193635 
L 209.014807 195.957712 
L 210.202402 190.179897 
L 211.389997 194.28197 
L 212.577592 189.721541 
L 213.765187 201.870113 
L 214.952782 186.111461 
L 216.140377 192.276914 
L 218.515567 186.263501 
L 219.703162 192.862811 
L 220.890757 200.616948 
L 223.265947 190.854906 
L 224.453542 191.966923 
L 225.641137 197.022656 
L 226.828732 197.632227 
L 228.016327 194.406916 
L 229.203922 200.345015 
L 230.391517 187.292031 
L 231.579112 197.627267 
L 232.766707 187.210411 
L 233.954302 205.382363 
L 235.141897 197.491145 
L 236.329492 195.147612 
L 237.517087 198.799177 
L 238.704682 198.430983 
L 239.892277 191.695246 
L 241.079872 192.048758 
L 242.267467 191.783337 
L 243.455062 193.685695 
L 244.642657 199.223077 
L 245.830252 196.480248 
L 247.017847 184.81177 
L 248.205442 187.610018 
L 249.393037 194.460585 
L 250.580632 198.792553 
L 251.768227 198.192376 
L 252.955822 203.224422 
L 254.143417 190.074341 
L 255.331012 198.931626 
L 256.518607 196.184643 
L 257.706202 201.846041 
L 258.893798 195.012835 
L 260.081393 195.306137 
L 261.268988 195.867456 
L 262.456583 207.54539 
L 263.644178 195.089067 
L 264.831773 197.496304 
L 266.019368 188.549657 
L 267.206963 192.220151 
L 268.394558 202.634236 
L 269.582153 197.67896 
L 270.769748 202.548818 
L 271.957343 192.60885 
L 273.144938 187.454729 
L 274.332533 194.152171 
L 275.520128 189.409776 
L 276.707723 196.600426 
L 279.082913 193.105852 
L 280.270508 192.032022 
L 281.458103 200.258328 
L 282.645698 191.932276 
L 283.833293 191.942429 
L 285.020888 196.804052 
L 286.208483 187.221249 
L 287.396078 196.78012 
L 288.583673 195.873934 
L 289.771268 189.186846 
L 290.958863 194.651192 
L 292.146458 187.79719 
L 293.334053 198.488481 
L 294.521648 197.42826 
L 295.709243 191.462218 
L 296.896838 181.617862 
L 298.084433 204.408873 
L 299.272028 197.116613 
L 301.647218 193.926891 
L 302.834813 198.365325 
L 304.022408 187.097423 
L 305.210003 183.372315 
L 306.397598 198.218998 
L 307.585193 198.088265 
L 308.772788 191.254013 
L 309.960383 197.129828 
L 311.147978 184.492689 
L 312.335573 191.82444 
L 313.523168 191.964224 
L 314.710763 195.614494 
L 315.898358 189.022464 
L 317.085953 193.872294 
L 318.273548 193.188019 
L 319.461143 193.074869 
L 320.648738 194.527071 
L 323.023928 191.795852 
L 324.211523 193.03586 
L 325.399118 196.308922 
L 326.586713 193.304601 
L 327.774308 194.757208 
L 328.961903 190.310872 
L 330.149498 192.607273 
L 331.337093 190.912886 
L 332.524688 196.236805 
L 333.712283 200.383433 
L 334.899878 197.143278 
L 336.087473 187.715086 
L 337.275068 186.036155 
L 338.462663 190.797467 
L 339.650258 186.844521 
L 340.837853 192.943323 
L 342.025448 191.843621 
L 343.213043 193.650443 
L 344.400638 200.131177 
L 345.588234 192.961601 
L 346.775829 195.028798 
L 347.963424 191.626191 
L 349.151019 192.422782 
L 350.338614 183.915234 
L 351.526209 197.015783 
L 352.713804 189.558721 
L 353.901399 189.911102 
L 355.088994 196.890864 
L 356.276589 194.152695 
L 357.464184 186.878081 
L 358.651779 193.996651 
L 359.839374 194.191142 
L 361.026969 186.201939 
L 362.214564 206.417183 
L 363.402159 200.464877 
L 365.777349 191.793448 
L 366.964944 194.886938 
L 368.152539 195.969287 
L 369.340134 192.919628 
L 370.527729 196.993332 
L 371.715324 190.110803 
L 372.902919 190.37441 
L 374.090514 193.682449 
L 375.278109 193.561478 
L 376.465704 198.541518 
L 377.653299 194.501701 
L 378.840894 189.802102 
L 380.028489 193.380757 
L 381.216084 190.600893 
L 382.403679 188.608176 
L 384.778869 193.679389 
L 385.966464 191.110843 
L 387.154059 192.429977 
L 388.341654 199.738036 
L 389.529249 190.441506 
L 390.716844 201.463885 
L 391.904439 198.148574 
L 393.092034 186.136764 
L 394.279629 196.031032 
L 395.467224 198.104692 
L 396.654819 205.69457 
L 397.842414 191.266265 
L 400.217604 198.617453 
L 402.592794 184.414319 
L 403.780389 188.899108 
L 404.967984 196.45617 
L 406.155579 190.731748 
L 407.343174 188.818175 
L 408.530769 197.246874 
L 409.718364 195.129835 
L 410.905959 189.041896 
L 412.093554 203.046273 
L 413.281149 201.7304 
L 414.468744 190.657597 
L 415.656339 190.430598 
L 416.843934 189.715493 
L 418.031529 199.261245 
L 419.219124 195.910386 
L 420.406719 195.382212 
L 421.594314 203.961351 
L 422.781909 195.412068 
L 423.969504 205.302934 
L 425.157099 194.876856 
L 426.344694 196.938583 
L 427.532289 188.681616 
L 428.719884 187.954039 
L 429.907479 193.239895 
L 431.095074 182.088538 
L 432.28267 190.760463 
L 433.470265 189.197218 
L 434.65786 183.868193 
L 435.845455 194.819236 
L 435.845455 194.819236 
" clip-path="url(#pf6720d013f)" style="fill: none; stroke: #ff7f0e; stroke-width: 1.5; stroke-linecap: square"/>
   </g>
   <g id="patch_3">
    <path d="M 63 320.4 
L 63 43.2 
" style="fill: none; stroke: #000000; stroke-width: 0.8; stroke-linejoin: miter; stroke-linecap: square"/>
   </g>
   <g id="patch_4">
    <path d="M 453.6 320.4 
L 453.6 43.2 
" style="fill: none; stroke: #000000; stroke-width: 0.8; stroke-linejoin: miter; stroke-linecap: square"/>
   </g>
   <g id="patch_5">
    <path d="M 63 320.4 
L 453.6 320.4 
" style="fill: none; stroke: #000000; stroke-width: 0.8; stroke-linejoin: miter; stroke-linecap: square"/>
   </g>
   <g id="patch_6">
    <path d="M 63 43.2 
L 453.6 43.2 
" style="fill: none; stroke: #000000; stroke-width: 0.8; stroke-linejoin: miter; stroke-linecap: square"/>
   </g>
   <g id="legend_1">
    <g id="patch_7">
     <path d="M 70 81.1125 
L 150.267188 81.1125 
Q 152.267188 81.1125 152.267188 79.1125 
L 152.267188 50.2 
Q 152.267188 48.2 150.267188 48.2 
L 70 48.2 
Q 68 48.2 68 50.2 
L 68 79.1125 
Q 68 81.1125 70 81.1125 
z
" style="fill: #ffffff; opacity: 0.8; stroke: #cccccc; stroke-linejoin: miter"/>
    </g>
    <g id="line2d_15">
     <path d="M 72 56.298437 
L 82 56.298437 
L 92 56.298437 
" style="fill: none; stroke: #1f77b4; stroke-width: 1.5; stroke-linecap: square"/>
    </g>
    <g id="text_13">
     <!-- train_loss -->
     <g transform="translate(100 59.798437) scale(0.1 -0.1)">
      <defs>
       <path id="DejaVuSans-74" d="M 1172 4494 
L 1172 3500 
L 2356 3500 
L 2356 3053 
L 1172 3053 
L 1172 1153 
Q 1172 725 1289 603 
Q 1406 481 1766 481 
L 2356 481 
L 2356 0 
L 1766 0 
Q 1100 0 847 248 
Q 594 497 594 1153 
L 594 3053 
L 172 3053 
L 172 3500 
L 594 3500 
L 594 4494 
L 1172 4494 
z
" transform="scale(0.015625)"/>
       <path id="DejaVuSans-72" d="M 2631 2963 
Q 2534 3019 2420 3045 
Q 2306 3072 2169 3072 
Q 1681 3072 1420 2755 
Q 1159 2438 1159 1844 
L 1159 0 
L 581 0 
L 581 3500 
L 1159 3500 
L 1159 2956 
Q 1341 3275 1631 3429 
Q 1922 3584 2338 3584 
Q 2397 3584 2469 3576 
Q 2541 3569 2628 3553 
L 2631 2963 
z
" transform="scale(0.015625)"/>
       <path id="DejaVuSans-61" d="M 2194 1759 
Q 1497 1759 1228 1600 
Q 959 1441 959 1056 
Q 959 750 1161 570 
Q 1363 391 1709 391 
Q 2188 391 2477 730 
Q 2766 1069 2766 1631 
L 2766 1759 
L 2194 1759 
z
M 3341 1997 
L 3341 0 
L 2766 0 
L 2766 531 
Q 2569 213 2275 61 
Q 1981 -91 1556 -91 
Q 1019 -91 701 211 
Q 384 513 384 1019 
Q 384 1609 779 1909 
Q 1175 2209 1959 2209 
L 2766 2209 
L 2766 2266 
Q 2766 2663 2505 2880 
Q 2244 3097 1772 3097 
Q 1472 3097 1187 3025 
Q 903 2953 641 2809 
L 641 3341 
Q 956 3463 1253 3523 
Q 1550 3584 1831 3584 
Q 2591 3584 2966 3190 
Q 3341 2797 3341 1997 
z
" transform="scale(0.015625)"/>
       <path id="DejaVuSans-69" d="M 603 3500 
L 1178 3500 
L 1178 0 
L 603 0 
L 603 3500 
z
M 603 4863 
L 1178 4863 
L 1178 4134 
L 603 4134 
L 603 4863 
z
" transform="scale(0.015625)"/>
       <path id="DejaVuSans-6e" d="M 3513 2113 
L 3513 0 
L 2938 0 
L 2938 2094 
Q 2938 2591 2744 2837 
Q 2550 3084 2163 3084 
Q 1697 3084 1428 2787 
Q 1159 2491 1159 1978 
L 1159 0 
L 581 0 
L 581 3500 
L 1159 3500 
L 1159 2956 
Q 1366 3272 1645 3428 
Q 1925 3584 2291 3584 
Q 2894 3584 3203 3211 
Q 3513 2838 3513 2113 
z
" transform="scale(0.015625)"/>
       <path id="DejaVuSans-5f" d="M 3263 -1063 
L 3263 -1509 
L -63 -1509 
L -63 -1063 
L 3263 -1063 
z
" transform="scale(0.015625)"/>
       <path id="DejaVuSans-6c" d="M 603 4863 
L 1178 4863 
L 1178 0 
L 603 0 
L 603 4863 
z
" transform="scale(0.015625)"/>
       <path id="DejaVuSans-6f" d="M 1959 3097 
Q 1497 3097 1228 2736 
Q 959 2375 959 1747 
Q 959 1119 1226 758 
Q 1494 397 1959 397 
Q 2419 397 2687 759 
Q 2956 1122 2956 1747 
Q 2956 2369 2687 2733 
Q 2419 3097 1959 3097 
z
M 1959 3584 
Q 2709 3584 3137 3096 
Q 3566 2609 3566 1747 
Q 3566 888 3137 398 
Q 2709 -91 1959 -91 
Q 1206 -91 779 398 
Q 353 888 353 1747 
Q 353 2609 779 3096 
Q 1206 3584 1959 3584 
z
" transform="scale(0.015625)"/>
       <path id="DejaVuSans-73" d="M 2834 3397 
L 2834 2853 
Q 2591 2978 2328 3040 
Q 2066 3103 1784 3103 
Q 1356 3103 1142 2972 
Q 928 2841 928 2578 
Q 928 2378 1081 2264 
Q 1234 2150 1697 2047 
L 1894 2003 
Q 2506 1872 2764 1633 
Q 3022 1394 3022 966 
Q 3022 478 2636 193 
Q 2250 -91 1575 -91 
Q 1294 -91 989 -36 
Q 684 19 347 128 
L 347 722 
Q 666 556 975 473 
Q 1284 391 1588 391 
Q 1994 391 2212 530 
Q 2431 669 2431 922 
Q 2431 1156 2273 1281 
Q 2116 1406 1581 1522 
L 1381 1569 
Q 847 1681 609 1914 
Q 372 2147 372 2553 
Q 372 3047 722 3315 
Q 1072 3584 1716 3584 
Q 2034 3584 2315 3537 
Q 2597 3491 2834 3397 
z
" transform="scale(0.015625)"/>
      </defs>
      <use xlink:href="#DejaVuSans-74"/>
      <use xlink:href="#DejaVuSans-72" x="39.208984"/>
      <use xlink:href="#DejaVuSans-61" x="80.322266"/>
      <use xlink:href="#DejaVuSans-69" x="141.601562"/>
      <use xlink:href="#DejaVuSans-6e" x="169.384766"/>
      <use xlink:href="#DejaVuSans-5f" x="232.763672"/>
      <use xlink:href="#DejaVuSans-6c" x="282.763672"/>
      <use xlink:href="#DejaVuSans-6f" x="310.546875"/>
      <use xlink:href="#DejaVuSans-73" x="371.728516"/>
      <use xlink:href="#DejaVuSans-73" x="423.828125"/>
     </g>
    </g>
    <g id="line2d_16">
     <path d="M 72 71.254687 
L 82 71.254687 
L 92 71.254687 
" style="fill: none; stroke: #ff7f0e; stroke-width: 1.5; stroke-linecap: square"/>
    </g>
    <g id="text_14">
     <!-- valid_loss -->
     <g transform="translate(100 74.754687) scale(0.1 -0.1)">
      <defs>
       <path id="DejaVuSans-76" d="M 191 3500 
L 800 3500 
L 1894 563 
L 2988 3500 
L 3597 3500 
L 2284 0 
L 1503 0 
L 191 3500 
z
" transform="scale(0.015625)"/>
       <path id="DejaVuSans-64" d="M 2906 2969 
L 2906 4863 
L 3481 4863 
L 3481 0 
L 2906 0 
L 2906 525 
Q 2725 213 2448 61 
Q 2172 -91 1784 -91 
Q 1150 -91 751 415 
Q 353 922 353 1747 
Q 353 2572 751 3078 
Q 1150 3584 1784 3584 
Q 2172 3584 2448 3432 
Q 2725 3281 2906 2969 
z
M 947 1747 
Q 947 1113 1208 752 
Q 1469 391 1925 391 
Q 2381 391 2643 752 
Q 2906 1113 2906 1747 
Q 2906 2381 2643 2742 
Q 2381 3103 1925 3103 
Q 1469 3103 1208 2742 
Q 947 2381 947 1747 
z
" transform="scale(0.015625)"/>
      </defs>
      <use xlink:href="#DejaVuSans-76"/>
      <use xlink:href="#DejaVuSans-61" x="59.179688"/>
      <use xlink:href="#DejaVuSans-6c" x="120.458984"/>
      <use xlink:href="#DejaVuSans-69" x="148.242188"/>
      <use xlink:href="#DejaVuSans-64" x="176.025391"/>
      <use xlink:href="#DejaVuSans-5f" x="239.501953"/>
      <use xlink:href="#DejaVuSans-6c" x="289.501953"/>
      <use xlink:href="#DejaVuSans-6f" x="317.285156"/>
      <use xlink:href="#DejaVuSans-73" x="378.466797"/>
      <use xlink:href="#DejaVuSans-73" x="430.566406"/>
     </g>
    </g>
   </g>
  </g>
 </g>
 <defs>
  <clipPath id="pf6720d013f">
   <rect x="63" y="43.2" width="390.6" height="277.2"/>
  </clipPath>
 </defs>
</svg>
